<svg xmlns="http://www.w3.org/2000/svg" width="512" height="512" viewBox="0 0 512 512">
<defs>
<clipPath id="clip"><circle cx="256" cy="256" r="236"/></clipPath>
<linearGradient id="bg" x1="0" y1="0" x2="1" y2="1">
<stop offset="0" stop-color="#9FD3E7"/><stop offset="1" stop-color="#9FD3E7" stop-opacity=".72"/>
</linearGradient>
</defs>
<circle cx="256" cy="256" r="236" fill="url(#bg)"/>
<g clip-path="url(#clip)">
<path d="M116 512c12-96 68-150 140-150s128 54 140 150z" fill="#111827"/>
<rect x="222" y="322" width="68" height="78" rx="28" fill="#D0945F"/>
<ellipse cx="256" cy="236" rx="84" ry="104" fill="#D0945F"/>
<ellipse cx="166" cy="244" rx="18" ry="28" fill="#D0945F"/><ellipse cx="346" cy="244" rx="18" ry="28" fill="#D0945F"/>
<path d="M170 194c16-70 156-90 178 0-52-30-118-22-178 0z" fill="#3A1D12"/>
<circle cx="198" cy="170" r="24" fill="#3A1D12"/>
<circle cx="230" cy="150" r="26" fill="#3A1D12"/>
<circle cx="270" cy="148" r="26" fill="#3A1D12"/>
<circle cx="304" cy="168" r="25" fill="#3A1D12"/>
<circle cx="336" cy="198" r="20" fill="#3A1D12"/>
<circle cx="224" cy="240" r="7" fill="#111"/><circle cx="288" cy="240" r="7" fill="#111"/>
<path d="M207 216c14-10 31-10 43 0M263 216c14-10 31-10 43 0" stroke="#111" stroke-width="8" stroke-linecap="round" fill="none" opacity=".85"/>
<path d="M256 246c-8 18-8 32 8 38" stroke="#9B5E3A" stroke-width="6" fill="none" stroke-linecap="round"/>
<path d="M222 304c24 24 68 24 92 0" stroke="#111" stroke-width="7" fill="none" stroke-linecap="round"/>
</g><circle cx="256" cy="256" r="236" fill="none" stroke="#FFFFFF" stroke-opacity=".08" stroke-width="6"/></svg>