<svg xmlns="http://www.w3.org/2000/svg" width="512" height="512" viewBox="0 0 512 512">
<defs>
<clipPath id="clip"><circle cx="256" cy="256" r="236"/></clipPath>
<linearGradient id="bg" x1="0" y1="0" x2="1" y2="1">
<stop offset="0" stop-color="#86C8E8"/><stop offset="1" stop-color="#86C8E8" stop-opacity=".72"/>
</linearGradient>
</defs>
<circle cx="256" cy="256" r="236" fill="url(#bg)"/>
<g clip-path="url(#clip)">
<path d="M116 512c12-96 68-150 140-150s128 54 140 150z" fill="#264F39"/>
<rect x="222" y="322" width="68" height="78" rx="28" fill="#F2B181"/>
<ellipse cx="256" cy="236" rx="84" ry="104" fill="#F2B181"/>
<ellipse cx="166" cy="244" rx="18" ry="28" fill="#F2B181"/><ellipse cx="346" cy="244" rx="18" ry="28" fill="#F2B181"/>
<path d="M154 214c8-86 196-100 204 0 8 84 22 126 56 174-70 28-246 28-316 0 34-48 48-90 56-174z" fill="#C6532D"/>
<circle cx="224" cy="240" r="7" fill="#111"/><circle cx="288" cy="240" r="7" fill="#111"/>
<path d="M207 216c14-10 31-10 43 0M263 216c14-10 31-10 43 0" stroke="#111" stroke-width="8" stroke-linecap="round" fill="none" opacity=".85"/>
<path d="M256 246c-8 18-8 32 8 38" stroke="#9B5E3A" stroke-width="6" fill="none" stroke-linecap="round"/>
<path d="M222 304c24 24 68 24 92 0" stroke="#111" stroke-width="7" fill="none" stroke-linecap="round"/>
<circle cx="218" cy="266" r="3" fill="#B56B45" opacity=".65"/>
<circle cx="234" cy="266" r="3" fill="#B56B45" opacity=".65"/>
<circle cx="282" cy="266" r="3" fill="#B56B45" opacity=".65"/>
<circle cx="298" cy="266" r="3" fill="#B56B45" opacity=".65"/>
</g><circle cx="256" cy="256" r="236" fill="none" stroke="#FFFFFF" stroke-opacity=".08" stroke-width="6"/></svg>