<svg xmlns="http://www.w3.org/2000/svg" width="512" height="512" viewBox="0 0 512 512">
<defs>
<clipPath id="clip"><circle cx="256" cy="256" r="236"/></clipPath>
<linearGradient id="bg" x1="0" y1="0" x2="1" y2="1">
<stop offset="0" stop-color="#C3A3DE"/><stop offset="1" stop-color="#C3A3DE" stop-opacity=".72"/>
</linearGradient>
</defs>
<circle cx="256" cy="256" r="236" fill="url(#bg)"/>
<g clip-path="url(#clip)">
<path d="M116 512c12-96 68-150 140-150s128 54 140 150z" fill="#F7F3E8"/>
<rect x="222" y="322" width="68" height="78" rx="28" fill="#B87546"/>
<ellipse cx="256" cy="236" rx="84" ry="104" fill="#B87546"/>
<ellipse cx="166" cy="244" rx="18" ry="28" fill="#B87546"/><ellipse cx="346" cy="244" rx="18" ry="28" fill="#B87546"/>
<path d="M156 142h200v230c-32 36-168 36-200 0z" fill="#F5F0E6"/>
<path d="M158 150c52 38 142 38 196 0" fill="none" stroke="#111" stroke-width="12"/>
<rect x="154" y="142" width="204" height="18" rx="9" fill="#111"/>
<circle cx="224" cy="240" r="7" fill="#111"/><circle cx="288" cy="240" r="7" fill="#111"/>
<path d="M207 216c14-10 31-10 43 0M263 216c14-10 31-10 43 0" stroke="#111" stroke-width="8" stroke-linecap="round" fill="none" opacity=".85"/>
<path d="M256 246c-8 18-8 32 8 38" stroke="#9B5E3A" stroke-width="6" fill="none" stroke-linecap="round"/>
<path d="M222 304c24 24 68 24 92 0" stroke="#111" stroke-width="7" fill="none" stroke-linecap="round"/>
<path d="M198 288c20 70 96 76 116 0 0 74-116 74-116 0z" fill="#111111" opacity=".95"/>
<path d="M224 304c22 20 58 20 80 0" stroke="#fff" stroke-width="6" fill="none" stroke-linecap="round" opacity=".9"/>
</g><circle cx="256" cy="256" r="236" fill="none" stroke="#FFFFFF" stroke-opacity=".08" stroke-width="6"/></svg>